# xmcd
#
# Track frame offsets:
# 150
# 16029
# 34801
# 48313
# 64286
# 79317
# 94961
# 110380
# 129231
# 140646
# 150496
# 167892
# 185510
# 203110
# 220918
# 236401
# 252723
# 267052
# 279918
# 295915
#
# Disc length: 4123 seconds
#
#
# Revision: 0
# Processed by: cddbd v1.5.2PL0 Copyright (c) Steve Scherf et al.
# Submitted via: FreeRIP 2.942 
#
DISCID=22101914
DTITLE=Ney and Anderson - 
DYEAR=1900
DGENRE=Country
TTITLE0=Melhor é te perder
TTITLE1=Vaneira apaixonada
TTITLE2=E dos galinhas
TTITLE3=A noite inteira
TTITLE4=Menina fala sério
TTITLE5=Fada
TTITLE6=Porta da frente
TTITLE7=Orkut do amor
TTITLE8=Galera da zueira
TTITLE9=Reza pra nóis
TTITLE10=Toca telefone toca
TTITLE11=Um homem sem mulher
TTITLE12=Calculadora do amor
TTITLE13=Toca um samba aí
TTITLE14=Leilao
TTITLE15=A moda é ser pião
TTITLE16=Bonus Acustico 17
TTITLE17=Bonus Acustico 18
TTITLE18=Bonus Acustico 19
TTITLE19=Bonus Acustico 20
EXTD=
EXTT0=
EXTT1=
EXTT2=
EXTT3=
EXTT4=
EXTT5=
EXTT6=
EXTT7=
EXTT8=
EXTT9=
EXTT10=
EXTT11=
EXTT12=
EXTT13=
EXTT14=
EXTT15=
EXTT16=
EXTT17=
EXTT18=
EXTT19=
PLAYORDER=
